<?xml version="1.0" encoding="utf-8"?>
<svg version="1.1" id="Layer_1" xmlns="http://www.w3.org/2000/svg" xmlns:xlink="http://www.w3.org/1999/xlink" x="0px" y="0px"
	 width="20px" height="20px" viewBox="0 0 20 20" style="enable-background:new 0 0 20 20;" xml:space="preserve">
<g>
	<rect x="1" y="3" style="fill:#808080;" width="9" height="13"/>
</g>
<line style="fill:none;stroke:#4D4D4D;stroke-miterlimit:10;" x1="7" y1="8.5" x2="2" y2="8.5"/>
<line style="fill:none;stroke:#4D4D4D;stroke-miterlimit:10;" x1="8" y1="12.5" x2="2" y2="12.5"/>
<line style="fill:none;stroke:#4D4D4D;stroke-miterlimit:10;" x1="9" y1="10.5" x2="2" y2="10.5"/>
<line style="fill:none;stroke:#4EB8D1;stroke-miterlimit:10;" x1="5" y1="12.5" x2="3" y2="12.5"/>
<g>
	<rect x="1" y="3" style="fill:#999999;" width="9" height="4"/>
</g>
<line style="fill:none;stroke:#36828E;stroke-miterlimit:10;" x1="3" y1="5.5" x2="2" y2="5.5"/>
<g>
	<rect x="12" y="3" style="fill:#808080;" width="1" height="13"/>
</g>
<line style="fill:none;stroke:#4D4D4D;stroke-miterlimit:10;" x1="13" y1="10.5" x2="12" y2="10.5"/>
<line style="fill:none;stroke:#4EB8D1;stroke-miterlimit:10;" x1="13" y1="12.5" x2="12" y2="12.5"/>
<g>
	<rect x="12" y="3" style="fill:#999999;" width="1" height="4"/>
</g>
<line style="fill:none;stroke:#36828E;stroke-miterlimit:10;" x1="13" y1="5.5" x2="12" y2="5.5"/>
<g>
	<rect x="15" y="3" style="fill:#808080;" width="1" height="13"/>
</g>
<line style="fill:none;stroke:#4EB8D1;stroke-miterlimit:10;" x1="16" y1="8.5" x2="15" y2="8.5"/>
<g>
	<rect x="15" y="3" style="fill:#999999;" width="1" height="4"/>
</g>
<g>
	<rect x="18" y="3" style="fill:#808080;" width="1" height="13"/>
</g>
<line style="fill:none;stroke:#4D4D4D;stroke-miterlimit:10;" x1="19" y1="12.5" x2="18" y2="12.5"/>
<line style="fill:none;stroke:#4EB8D1;stroke-miterlimit:10;" x1="19" y1="13.5" x2="18" y2="13.5"/>
<g>
	<rect x="18" y="3" style="fill:#999999;" width="1" height="4"/>
</g>
</svg>
